<?xml version="1.0" encoding="UTF-8"?>
<svg xmlns="http://www.w3.org/2000/svg" xmlns:xlink="http://www.w3.org/1999/xlink" width="569.7638pt" height="226.7717pt" viewBox="0 0 569.7638 226.7717" version="1.1">
<g id="surface0">
<path style=" stroke:none;fill-rule:nonzero;fill:rgb(0%,0%,0%);fill-opacity:1;" d="M 11.992188 211.304688 C 15.59375 211.304688 14.910156 209.097656 11.761719 207.941406 C 3.75 205 8.957031 197.425781 16.816406 200.421875 L 16.253906 202.9375 C 12.402344 201.203125 8.0625 203.683594 13.355469 205.582031 C 21.320312 208.441406 16.988281 215.730469 9.121094 213.574219 C 8.402344 213.378906 7.894531 213.21875 7.605469 213.101562 L 8.144531 210.507812 C 9.304688 210.980469 10.597656 211.304688 11.992188 211.304688 Z M 23.492188 213.535156 L 20.386719 213.535156 L 20.386719 200.113281 L 23.492188 200.113281 L 23.492188 213.535156 Z M 23.824219 196.1875 C 23.824219 198.671875 20 198.664062 20 196.1875 C 20 193.679688 23.824219 193.671875 23.824219 196.1875 Z M 27.441406 200.550781 C 32.808594 199.019531 38.65625 198.996094 38.65625 205.992188 L 38.65625 213.535156 L 35.550781 213.535156 C 35.550781 211.65625 36.0625 205.0625 34.949219 203.414062 C 34.070312 202.109375 31.886719 202.484375 30.546875 202.707031 L 30.546875 213.535156 L 27.441406 213.535156 L 27.441406 200.550781 Z M 44.894531 206.480469 C 44.894531 209.871094 47.820312 211.382812 50.4375 209.585938 L 50.4375 202.628906 C 47.542969 201.960938 44.894531 203.042969 44.894531 206.480469 Z M 53.542969 212.175781 C 53.542969 218.652344 47.363281 219.359375 42.40625 217.617188 L 42.96875 214.972656 C 45.566406 216.0625 50.4375 216.566406 50.4375 212.664062 L 50.4375 212.152344 C 40.140625 217.296875 36.203125 195.871094 53.542969 200.550781 L 53.542969 212.175781 Z M 62.164062 213.792969 C 59.21875 213.738281 57.441406 212.605469 57.441406 209.585938 L 57.441406 194.136719 L 60.546875 193.621094 C 60.546875 195.835938 60.058594 209.546875 60.957031 210.597656 C 61.351562 211.054688 61.949219 211.144531 62.601562 211.226562 L 62.164062 213.792969 Z M 64.371094 206.890625 C 64.371094 197.425781 77.507812 196.976562 76.433594 207.789062 L 67.578125 207.789062 C 67.882812 211.585938 72.414062 211.726562 75.203125 210.535156 L 75.613281 213.074219 C 71.460938 215.148438 64.371094 213.921875 64.371094 206.890625 Z M 73.378906 205.503906 C 73.378906 201.261719 68.132812 201.445312 67.605469 205.503906 L 73.378906 205.503906 Z M 85.75 200.550781 C 91.113281 199.019531 96.964844 198.996094 96.964844 205.992188 L 96.964844 213.535156 L 93.859375 213.535156 C 93.859375 211.65625 94.371094 205.0625 93.253906 203.414062 C 92.375 202.109375 90.191406 202.484375 88.855469 202.707031 L 88.855469 213.535156 L 85.75 213.535156 L 85.75 200.550781 Z M 111.769531 213.125 C 99.351562 216.324219 100.609375 209.929688 100.609375 200.113281 L 103.710938 200.113281 C 103.710938 206.824219 102.289062 212.566406 108.664062 210.96875 L 108.664062 200.113281 L 111.769531 200.113281 L 111.769531 213.125 Z M 114.980469 206.839844 C 114.980469 201.230469 120.203125 198.421875 125.21875 200.472656 L 124.550781 203.015625 C 115.984375 199.34375 115.722656 214.429688 124.988281 210.636719 L 125.421875 213.203125 C 121.507812 215.160156 114.980469 213.679688 114.980469 206.839844 Z M 132.507812 213.792969 C 129.558594 213.738281 127.785156 212.605469 127.785156 209.585938 L 127.785156 194.136719 L 130.890625 193.621094 C 130.890625 195.835938 130.402344 209.546875 131.300781 210.597656 C 131.691406 211.054688 132.289062 211.144531 132.941406 211.226562 L 132.507812 213.792969 Z M 134.714844 206.890625 C 134.714844 197.425781 147.847656 196.976562 146.773438 207.789062 L 137.921875 207.789062 C 138.222656 211.585938 142.757812 211.726562 145.542969 210.535156 L 145.953125 213.074219 C 141.804688 215.148438 134.714844 213.921875 134.714844 206.890625 Z M 143.722656 205.503906 C 143.722656 201.261719 138.476562 201.445312 137.945312 205.503906 L 143.722656 205.503906 Z M 162.25 206.8125 C 162.25 216.226562 149.367188 216.191406 149.367188 206.8125 C 149.367188 197.496094 162.25 197.476562 162.25 206.8125 Z M 159.066406 206.8125 C 159.066406 201.046875 152.550781 201.046875 152.550781 206.8125 C 152.550781 212.644531 159.066406 212.644531 159.066406 206.8125 Z M 165.304688 196.574219 L 168.410156 196.058594 L 168.410156 200.113281 L 173.183594 200.113281 L 173.183594 202.707031 L 168.410156 202.707031 C 168.410156 207.160156 167.007812 213.140625 173.207031 210.664062 L 173.722656 213.125 C 169.070312 215.121094 165.304688 213.550781 165.304688 208.199219 L 165.304688 196.574219 Z M 179.316406 213.535156 L 176.210938 213.535156 L 176.210938 200.113281 L 179.316406 200.113281 L 179.316406 213.535156 Z M 179.648438 196.1875 C 179.648438 198.671875 175.824219 198.664062 175.824219 196.1875 C 175.824219 193.679688 179.648438 193.671875 179.648438 196.1875 Z M 185.707031 206.789062 C 185.707031 210.445312 188.40625 211.6875 191.503906 210.96875 L 191.503906 203.273438 C 188.492188 201.203125 185.707031 203.164062 185.707031 206.789062 Z M 194.609375 213.125 C 177.117188 218.472656 180.847656 194.992188 191.503906 200.578125 L 191.503906 194.136719 L 194.609375 193.621094 L 194.609375 213.125 Z M 197.820312 206.890625 C 197.820312 197.425781 210.953125 196.976562 209.878906 207.789062 L 201.027344 207.789062 C 201.328125 211.585938 205.863281 211.726562 208.648438 210.535156 L 209.058594 213.074219 C 204.910156 215.148438 197.820312 213.921875 197.820312 206.890625 Z M 206.828125 205.503906 C 206.828125 201.261719 201.582031 201.445312 201.050781 205.503906 L 206.828125 205.503906 Z M 228.101562 206.890625 C 228.101562 203.390625 225.535156 201.808594 222.300781 202.707031 L 222.300781 210.378906 C 225.296875 212.441406 228.101562 210.5 228.101562 206.890625 Z M 231.28125 206.839844 C 231.28125 211.820312 227.125 215.726562 222.300781 213.074219 L 222.300781 218.285156 L 219.195312 218.285156 L 219.195312 200.550781 C 224.703125 199.0625 231.28125 199.585938 231.28125 206.839844 Z M 246.628906 206.8125 C 246.628906 216.226562 233.746094 216.191406 233.746094 206.8125 C 233.746094 197.496094 246.628906 197.476562 246.628906 206.8125 Z M 243.449219 206.8125 C 243.449219 201.046875 236.929688 201.046875 236.929688 206.8125 C 236.929688 212.644531 243.449219 212.644531 243.449219 206.8125 Z M 254.507812 213.792969 C 251.5625 213.738281 249.785156 212.605469 249.785156 209.585938 L 249.785156 194.136719 L 252.890625 193.621094 C 252.890625 195.835938 252.402344 209.546875 253.300781 210.597656 C 253.695312 211.054688 254.292969 211.144531 254.945312 211.226562 L 254.507812 213.792969 Z M 268.417969 200.113281 C 267.351562 204.03125 264.363281 214.863281 261.335938 217.308594 C 259.867188 218.496094 257.179688 218.707031 255.457031 217.847656 L 256.023438 215.359375 C 258.253906 216.226562 259.996094 215.539062 260.921875 213.355469 C 258.808594 209.273438 257.011719 204.738281 255.714844 200.113281 L 259.023438 200.113281 C 259.804688 203.386719 260.996094 206.882812 262.359375 209.96875 C 263.449219 206.9375 264.441406 203.257812 265.210938 200.113281 L 268.417969 200.113281 Z M 278.425781 206.480469 C 278.425781 202.660156 277.085938 202.171875 273.882812 202.707031 L 273.882812 213.535156 L 270.777344 213.535156 L 270.777344 200.550781 C 273.335938 199.820312 277.804688 199.003906 279.941406 201.140625 C 282.988281 198.921875 289.179688 198.546875 289.179688 205.992188 L 289.179688 213.535156 L 286.074219 213.535156 C 286.074219 207.953125 287.332031 200.859375 282.171875 202.746094 C 281.726562 202.90625 281.394531 203.066406 281.171875 203.21875 C 282.007812 205.835938 281.53125 210.851562 281.53125 213.535156 L 278.425781 213.535156 L 278.425781 206.480469 Z M 305.117188 206.8125 C 305.117188 216.226562 292.234375 216.191406 292.234375 206.8125 C 292.234375 197.496094 305.117188 197.476562 305.117188 206.8125 Z M 301.933594 206.8125 C 301.933594 201.046875 295.414062 201.046875 295.414062 206.8125 C 295.414062 212.644531 301.933594 212.644531 301.933594 206.8125 Z M 315.972656 202.914062 C 314.671875 202.480469 312.816406 202.320312 311.429688 202.785156 L 311.429688 213.535156 L 308.324219 213.535156 L 308.324219 200.757812 C 310.707031 199.871094 313.917969 199.429688 316.507812 200.292969 L 315.972656 202.914062 Z M 327.570312 206.890625 C 327.570312 203.390625 325.003906 201.808594 321.769531 202.707031 L 321.769531 210.378906 C 324.765625 212.441406 327.570312 210.5 327.570312 206.890625 Z M 330.753906 206.839844 C 330.753906 211.820312 326.59375 215.726562 321.769531 213.074219 L 321.769531 218.285156 L 318.664062 218.285156 L 318.664062 200.550781 C 324.171875 199.0625 330.753906 199.585938 330.753906 206.839844 Z M 333.960938 213.535156 L 333.960938 194.136719 L 337.066406 193.621094 L 337.066406 200.269531 C 341.800781 198.613281 345.175781 201.066406 345.175781 205.992188 L 345.175781 213.535156 L 342.070312 213.535156 C 342.070312 211.65625 342.582031 205.0625 341.46875 203.414062 C 340.585938 202.109375 338.363281 202.429688 337.066406 202.859375 L 337.066406 213.535156 L 333.960938 213.535156 Z M 352.027344 213.535156 L 348.921875 213.535156 L 348.921875 200.113281 L 352.027344 200.113281 L 352.027344 213.535156 Z M 352.359375 196.1875 C 352.359375 198.671875 348.539062 198.664062 348.539062 196.1875 C 348.539062 193.679688 352.359375 193.671875 352.359375 196.1875 Z M 359.339844 211.304688 C 362.941406 211.304688 362.253906 209.097656 359.109375 207.941406 C 351.097656 205 356.304688 197.425781 364.164062 200.421875 L 363.601562 202.9375 C 359.75 201.203125 355.410156 203.683594 360.703125 205.582031 C 368.667969 208.441406 364.335938 215.730469 356.46875 213.574219 C 355.75 213.378906 355.242188 213.21875 354.953125 213.101562 L 355.492188 210.507812 C 356.652344 210.980469 357.945312 211.304688 359.339844 211.304688 Z M 375.355469 206.480469 C 375.355469 202.660156 374.015625 202.171875 370.8125 202.707031 L 370.8125 213.535156 L 367.707031 213.535156 L 367.707031 200.550781 C 370.265625 199.820312 374.734375 199.003906 376.867188 201.140625 C 379.917969 198.921875 386.109375 198.546875 386.109375 205.992188 L 386.109375 213.535156 L 383.003906 213.535156 C 383.003906 207.953125 384.261719 200.859375 379.101562 202.746094 C 378.65625 202.90625 378.324219 203.066406 378.101562 203.21875 C 378.9375 205.835938 378.460938 210.851562 378.460938 213.535156 L 375.355469 213.535156 L 375.355469 206.480469 Z M 393.269531 211.304688 C 396.867188 211.304688 396.183594 209.097656 393.035156 207.941406 C 385.023438 205 390.230469 197.425781 398.09375 200.421875 L 397.527344 202.9375 C 393.675781 201.203125 389.335938 203.683594 394.628906 205.582031 C 402.59375 208.441406 398.261719 215.730469 390.394531 213.574219 C 389.675781 213.378906 389.171875 213.21875 388.878906 213.101562 L 389.417969 210.507812 C 390.578125 210.980469 391.871094 211.304688 393.269531 211.304688 Z M 412.335938 211.355469 C 413.292969 211.355469 414.019531 211.304688 414.515625 211.203125 L 414.515625 207.761719 C 409.390625 206.222656 407.882812 211.355469 412.335938 211.355469 Z M 412.078125 199.78125 C 415.585938 199.78125 417.519531 201.640625 417.519531 205.09375 L 417.519531 213.230469 C 404.648438 215.984375 405.414062 208.128906 408.332031 206.234375 C 410.0625 205.109375 412.519531 205.101562 414.515625 205.582031 C 414.515625 201.761719 411.25 201.851562 408.332031 202.914062 L 407.945312 200.398438 C 409.042969 200.015625 410.757812 199.78125 412.078125 199.78125 Z M 421.316406 200.550781 C 426.679688 199.019531 432.53125 198.996094 432.53125 205.992188 L 432.53125 213.535156 L 429.425781 213.535156 C 429.425781 211.65625 429.9375 205.0625 428.824219 203.414062 C 427.941406 202.109375 425.761719 202.484375 424.421875 202.707031 L 424.421875 213.535156 L 421.316406 213.535156 L 421.316406 200.550781 Z M 436.332031 200.550781 C 441.695312 199.019531 447.542969 198.996094 447.542969 205.992188 L 447.542969 213.535156 L 444.441406 213.535156 C 444.441406 211.65625 444.949219 205.0625 443.835938 203.414062 C 442.957031 202.109375 440.773438 202.484375 439.4375 202.707031 L 439.4375 213.535156 L 436.332031 213.535156 L 436.332031 200.550781 Z M 463.480469 206.8125 C 463.480469 216.226562 450.597656 216.191406 450.597656 206.8125 C 450.597656 197.496094 463.480469 197.476562 463.480469 206.8125 Z M 460.300781 206.8125 C 460.300781 201.046875 453.78125 201.046875 453.78125 206.8125 C 453.78125 212.644531 460.300781 212.644531 460.300781 206.8125 Z M 466.535156 196.574219 L 469.640625 196.058594 L 469.640625 200.113281 L 474.414062 200.113281 L 474.414062 202.707031 L 469.640625 202.707031 C 469.640625 207.160156 468.238281 213.140625 474.441406 210.664062 L 474.953125 213.125 C 470.304688 215.121094 466.535156 213.550781 466.535156 208.199219 L 466.535156 196.574219 Z M 482.136719 211.355469 C 483.097656 211.355469 483.824219 211.304688 484.320312 211.203125 L 484.320312 207.761719 C 479.191406 206.222656 477.683594 211.355469 482.136719 211.355469 Z M 481.882812 199.78125 C 485.390625 199.78125 487.324219 201.640625 487.324219 205.09375 L 487.324219 213.230469 C 474.449219 215.984375 475.21875 208.128906 478.136719 206.234375 C 479.867188 205.109375 482.324219 205.101562 484.320312 205.582031 C 484.320312 201.761719 481.054688 201.851562 478.136719 202.914062 L 477.75 200.398438 C 478.84375 200.015625 480.5625 199.78125 481.882812 199.78125 Z M 490.96875 196.574219 L 494.070312 196.058594 L 494.070312 200.113281 L 498.84375 200.113281 L 498.84375 202.707031 L 494.070312 202.707031 C 494.070312 207.160156 492.671875 213.140625 498.871094 210.664062 L 499.382812 213.125 C 494.734375 215.121094 490.96875 213.550781 490.96875 208.199219 L 490.96875 196.574219 Z M 513.988281 206.8125 C 513.988281 216.226562 501.105469 216.191406 501.105469 206.8125 C 501.105469 197.496094 513.988281 197.476562 513.988281 206.8125 Z M 510.804688 206.8125 C 510.804688 201.046875 504.285156 201.046875 504.285156 206.8125 C 504.285156 212.644531 510.804688 212.644531 510.804688 206.8125 Z M 524.84375 202.914062 C 523.542969 202.480469 521.6875 202.320312 520.300781 202.785156 L 520.300781 213.535156 L 517.195312 213.535156 L 517.195312 200.757812 C 519.578125 199.871094 522.789062 199.429688 525.382812 200.292969 L 524.84375 202.914062 Z M 524.84375 202.914062 "/>
<path style=" stroke:none;fill-rule:evenodd;fill:rgb(20%,20%,20%);fill-opacity:1;" d="M 85.347656 128.621094 C 80.582031 146.195312 71.773438 157.488281 52.386719 157.679688 L 13.425781 157.671875 L 7.777344 179.40625 L 54.152344 179.367188 C 83.148438 178.996094 100.589844 161.421875 107.613281 134.628906 L 128.804688 51.457031 C 132.5 36.578125 142.179688 30.875 157.273438 30.730469 L 193.316406 30.734375 L 198.886719 8.960938 L 155.902344 9.03125 C 131.011719 9.277344 112.671875 21.132812 106.527344 45.722656 L 85.347656 128.621094 Z M 85.347656 128.621094 "/>
<path style=" stroke:none;fill-rule:evenodd;fill:rgb(20%,20%,20%);fill-opacity:1;" d="M 170.726562 171.550781 L 168.753906 179.28125 L 192.539062 179.277344 L 230.449219 30.746094 C 236.730469 30.746094 276.683594 30.394531 279.59375 31.023438 L 278.894531 35.308594 L 242.191406 179.359375 L 265.933594 179.304688 L 301.160156 41.1875 C 306.304688 21.183594 295.070312 9.015625 275.101562 9.035156 L 212.183594 9.015625 L 170.726562 171.550781 Z M 279.804688 30.808594 C 279.660156 30.554688 279.902344 30.980469 279.804688 30.808594 "/>
<path style=" stroke:none;fill-rule:evenodd;fill:rgb(89.001297%,0%,22.999924%);fill-opacity:1;" d="M 314.496094 42.992188 L 338.4375 43.042969 L 347.132812 9.003906 L 323.328125 9.019531 L 314.496094 42.992188 Z M 314.496094 42.992188 "/>
<path style=" stroke:none;fill-rule:evenodd;fill:rgb(89.001297%,0%,22.999924%);fill-opacity:1;" d="M 311.089844 56.835938 L 279.859375 179.28125 L 303.644531 179.277344 L 334.792969 57.324219 L 311.089844 56.835938 Z M 311.089844 56.835938 "/>
<path style=" stroke:none;fill-rule:evenodd;fill:rgb(20%,20%,20%);fill-opacity:1;" d="M 317.871094 179.242188 L 341.679688 179.285156 L 360.410156 105.890625 C 373.011719 105.886719 408.035156 107.160156 417.898438 104.089844 C 425.511719 101.722656 431.53125 96.972656 435.492188 90.191406 L 435.503906 90.199219 C 437.296875 87.117188 438.652344 83.617188 439.605469 79.746094 L 439.625 79.753906 L 449.464844 41.195312 L 449.449219 41.1875 C 454.585938 21.367188 443.554688 9.015625 423.613281 9.035156 L 361.324219 9.015625 L 317.871094 179.242188 Z M 365.953125 84.164062 L 379.59375 30.746094 C 385.746094 30.746094 425.078125 30.417969 427.894531 30.996094 C 427.914062 33.742188 417.523438 75.234375 415.472656 78.882812 C 413.089844 83.117188 409.125 84.179688 404.195312 84.179688 L 365.953125 84.164062 Z M 428.121094 30.699219 C 428.3125 30.929688 427.867188 30.398438 428.121094 30.699219 "/>
<path style=" stroke:none;fill-rule:evenodd;fill:rgb(20%,20%,20%);fill-opacity:1;" d="M 427.007812 179.277344 L 450.898438 179.234375 L 469.679688 105.707031 L 519.148438 105.894531 L 500.328125 179.316406 L 524.21875 179.351562 L 559.449219 41.21875 C 564.59375 21.207031 553.359375 9.039062 533.390625 9.0625 L 470.472656 9.042969 L 427.007812 179.277344 Z M 475.175781 84.191406 L 488.792969 30.769531 C 495.066406 30.765625 534.976562 30.425781 537.882812 31.050781 C 537.921875 34.351562 526.332031 77.714844 524.675781 84.183594 L 475.175781 84.191406 Z M 538.109375 30.8125 C 538.019531 30.707031 538.042969 30.75 538.089844 30.835938 L 538.128906 30.835938 L 538.109375 30.8125 Z M 538.089844 30.835938 Z M 538.089844 30.835938 "/>
</g>
</svg>
